<svg width="661" height="590" viewBox="0 0 661 590" fill="none" xmlns="http://www.w3.org/2000/svg">
<path d="M330.113 69.1821L590.909 519.775H69.3161L330.113 69.1821ZM9.39876 485.14C-17.2697 531.204 15.9793 589.043 69.3161 589.043H590.909C644.246 589.043 677.495 531.204 650.827 485.14L390.03 34.5477C363.362 -11.5159 296.864 -11.5159 270.195 34.5477L9.39876 485.14ZM295.478 242.7V311.969C295.478 331.018 311.064 346.603 330.113 346.603C349.162 346.603 364.747 331.018 364.747 311.969V242.7C364.747 223.651 349.162 208.066 330.113 208.066C311.064 208.066 295.478 223.651 295.478 242.7ZM295.478 415.872H364.747V485.14H295.478V415.872Z" fill="white"/>
</svg>
